<?xml version="1.0" encoding="UTF-8"?>
<svg xmlns="http://www.w3.org/2000/svg" xmlns:xlink="http://www.w3.org/1999/xlink" width="180px" height="60px" viewBox="0 0 179 60" version="1.1">
<g id="surface1">
<path style=" stroke:none;fill-rule:nonzero;fill:rgb(0%,0%,0%);fill-opacity:1;" d="M 41.992188 2.511719 C 35.933594 3.425781 31.324219 5.726562 27.214844 9.871094 C 23.597656 13.519531 21.449219 17.523438 20.25 22.746094 C 20.003906 23.882812 19.898438 25.316406 19.878906 28.03125 L 19.878906 31.761719 L 17.296875 31.929688 C 15.871094 32.011719 14.234375 32.175781 13.65625 32.28125 C 12.089844 32.609375 10.25 33.5625 9.398438 34.519531 C 8.535156 35.472656 7.929688 37.238281 8.035156 38.4375 C 8.097656 39.183594 8.058594 39.222656 7.230469 39.539062 C 6.238281 39.890625 5.597656 40.449219 5.1875 41.234375 C 4.523438 42.542969 4.894531 42.667969 7.707031 42.125 L 9.296875 41.816406 L 10.1875 42.644531 C 10.910156 43.308594 11.238281 43.472656 11.902344 43.472656 C 12.933594 43.472656 15.207031 42.769531 16.671875 42 C 17.296875 41.671875 18.183594 41.359375 18.617188 41.296875 C 19.628906 41.132812 20.480469 40.304688 20.808594 39.160156 C 20.972656 38.621094 21.21875 38.292969 21.492188 38.207031 C 21.738281 38.148438 21.945312 38.125 21.945312 38.148438 C 21.964844 38.167969 22.335938 38.832031 22.75 39.636719 C 24.671875 43.226562 27.855469 46.707031 31.246094 48.988281 C 33.082031 50.191406 36.511719 51.765625 38.476562 52.285156 C 39.160156 52.449219 41.207031 52.738281 43.003906 52.925781 C 45.667969 53.175781 46.679688 53.195312 48.273438 53.011719 C 52.261719 52.535156 55.667969 51.230469 59.289062 48.824219 C 65.199219 44.882812 68.816406 39.539062 70.195312 32.671875 C 70.796875 29.792969 70.777344 25.625 70.195312 22.703125 C 68.402344 13.894531 62.054688 6.679688 53.460938 3.691406 C 50.132812 2.535156 45.253906 2.035156 41.992188 2.511719 Z M 48.707031 3.339844 C 56.703125 4.566406 63.609375 9.582031 67.285156 16.878906 C 68.894531 20.089844 69.578125 22.890625 69.722656 26.890625 C 69.886719 31.324219 69.183594 34.746094 67.304688 38.5 C 65.261719 42.644531 62.632812 45.648438 58.914062 48.160156 C 51.226562 53.300781 41.289062 53.734375 33.164062 49.257812 C 29.898438 47.453125 26.65625 44.449219 24.628906 41.339844 C 23.121094 38.996094 22.707031 38.105469 23.058594 37.898438 C 23.207031 37.8125 25.230469 37.296875 27.585938 36.757812 C 29.941406 36.21875 31.988281 35.742188 32.132812 35.679688 C 32.277344 35.640625 32.503906 35.867188 32.625 36.179688 C 33.476562 38.105469 35.871094 40.863281 37.585938 41.878906 C 39.617188 43.058594 40.792969 43.371094 43.230469 43.371094 C 45.792969 43.347656 47.300781 43.019531 49.660156 41.902344 C 52.839844 40.40625 56.621094 35.617188 58.109375 31.222656 C 58.5 30.0625 62.304688 22.144531 62.65625 21.75 C 62.695312 21.707031 63.171875 21.933594 63.75 22.265625 C 64.328125 22.578125 64.867188 22.761719 64.972656 22.683594 C 65.050781 22.578125 64.949219 22.410156 64.722656 22.289062 C 63.996094 21.894531 62.800781 20.503906 62.53125 19.738281 C 62.160156 18.722656 61.890625 18.828125 61.972656 19.964844 L 62.035156 20.941406 L 60.714844 21.75 C 57.074219 23.988281 52.570312 25.855469 48.914062 26.621094 C 46.433594 27.117188 41.578125 27.117188 39.203125 26.621094 C 35.789062 25.875 30.8125 23.511719 29.097656 21.8125 C 28.621094 21.332031 28.621094 21.332031 28.96875 20.257812 C 29.464844 18.765625 29.21875 18.742188 28.476562 20.195312 C 27.753906 21.667969 26.945312 22.664062 26.078125 23.179688 C 25.582031 23.492188 25.539062 23.574219 25.871094 23.574219 C 26.390625 23.574219 27.378906 22.929688 27.875 22.289062 C 28.144531 21.914062 28.246094 21.875 28.332031 22.125 C 28.394531 22.289062 29.179688 24.488281 30.085938 26.992188 C 31.59375 31.121094 32.339844 33.625 32.132812 33.835938 C 32.050781 33.917969 26.054688 35.183594 25.703125 35.183594 C 25.5625 35.183594 25.746094 34.953125 26.078125 34.683594 C 26.617188 34.25 26.695312 34.0625 26.679688 33.171875 C 26.679688 32.175781 25.976562 30.433594 25.414062 29.957031 C 25.210938 29.792969 24.816406 29.894531 23.847656 30.371094 C 22.273438 31.140625 21.035156 31.535156 20.851562 31.347656 C 20.769531 31.261719 20.707031 29.523438 20.726562 27.449219 C 20.746094 24.09375 20.808594 23.449219 21.261719 21.707031 C 23.144531 14.679688 27.628906 9.042969 33.953125 5.808594 C 36.785156 4.359375 38.808594 3.734375 42.714844 3.175781 C 43.996094 2.988281 46.910156 3.074219 48.707031 3.339844 Z M 60.089844 25.398438 L 58.050781 29.523438 L 56.683594 30.414062 C 55.921875 30.890625 55.253906 31.242188 55.195312 31.203125 C 55.15625 31.140625 55.007812 29.980469 54.886719 28.632812 C 54.761719 27.285156 54.617188 26.121094 54.554688 26.058594 C 54.492188 25.996094 54.472656 27.265625 54.515625 28.859375 L 54.59375 31.742188 L 52.28125 33.210938 C 51 34.019531 49.882812 34.769531 49.800781 34.851562 C 49.535156 35.121094 51.703125 34.003906 53.167969 33.109375 C 53.890625 32.652344 54.59375 32.28125 54.699219 32.28125 C 54.804688 32.28125 54.925781 32.777344 54.96875 33.359375 L 55.03125 34.457031 L 55.070312 33.171875 L 55.113281 31.90625 L 56.414062 30.972656 C 57.117188 30.457031 57.714844 30.0625 57.734375 30.082031 C 57.777344 30.125 57.574219 30.785156 57.304688 31.578125 C 56.371094 34.332031 53.519531 38.417969 51.3125 40.113281 C 47.570312 42.996094 42.011719 43.660156 38.351562 41.671875 L 37.382812 41.152344 L 37.359375 39.722656 C 37.339844 38.1875 37.628906 37.75 38.269531 38.292969 C 38.519531 38.5 38.703125 38.5 39.117188 38.3125 C 39.40625 38.1875 39.820312 38.085938 40.046875 38.085938 C 40.585938 38.085938 42.09375 37.609375 42.09375 37.421875 C 42.09375 37.359375 42.777344 36.945312 43.601562 36.53125 C 44.675781 35.992188 45.316406 35.785156 45.832031 35.84375 L 46.539062 35.90625 L 46.679688 38.480469 C 46.765625 39.910156 46.890625 41.171875 46.925781 41.277344 C 47.054688 41.546875 46.847656 33.941406 46.640625 30.625 L 46.496094 28.238281 L 46.453125 31.699219 L 46.433594 35.183594 L 45.914062 35.183594 C 45.402344 35.183594 45.402344 35.160156 45.402344 33.542969 C 45.402344 31.96875 45.378906 31.867188 44.796875 31.472656 C 44.488281 31.242188 44.160156 30.785156 44.097656 30.457031 C 43.933594 29.628906 43.273438 29.417969 40.664062 29.398438 C 38.828125 29.398438 38.394531 29.460938 37.816406 29.8125 C 36.722656 30.496094 36.511719 30.273438 36.511719 28.34375 C 36.511719 27.367188 36.429688 26.683594 36.308594 26.683594 C 36.203125 26.683594 36.097656 27.011719 36.097656 27.410156 C 36.097656 27.804688 36.058594 28.132812 35.996094 28.132812 C 35.625 28.132812 33.292969 27.035156 32.441406 26.457031 C 31.90625 26.082031 31.59375 25.9375 31.761719 26.164062 C 32.257812 26.789062 33.847656 27.71875 35.027344 28.050781 C 36.039062 28.359375 36.097656 28.40625 36.097656 29.066406 C 36.097656 29.605469 35.996094 29.773438 35.625 29.875 C 35.007812 30.019531 34.445312 31.039062 34.445312 32.011719 C 34.445312 33.023438 34.117188 33.484375 33.269531 33.648438 C 32.625 33.773438 32.589844 33.753906 32.589844 33.171875 C 32.589844 32.425781 32.070312 30.785156 30.230469 25.855469 C 29.511719 23.863281 28.929688 22.207031 28.96875 22.164062 C 28.992188 22.125 29.609375 22.558594 30.335938 23.097656 C 32.773438 24.941406 36.160156 26.457031 39.632812 27.222656 C 41.929688 27.742188 46.597656 27.699219 49.160156 27.140625 C 53.003906 26.308594 57.261719 24.507812 60.484375 22.347656 C 61.332031 21.792969 62.054688 21.316406 62.097656 21.316406 C 62.121094 21.292969 61.210938 23.140625 60.089844 25.398438 Z M 43.476562 30.042969 C 43.601562 30.1875 43.75 30.558594 43.828125 30.847656 C 43.890625 31.160156 44.179688 31.554688 44.46875 31.742188 C 44.945312 32.054688 44.988281 32.195312 44.988281 33.625 L 44.988281 35.160156 L 44.058594 35.785156 C 43.539062 36.136719 42.878906 36.488281 42.589844 36.550781 C 42.300781 36.632812 42.011719 36.800781 41.96875 36.945312 C 41.804688 37.378906 38.726562 38.148438 38.394531 37.8125 C 38.269531 37.6875 37.835938 37.710938 37.214844 37.835938 C 36.222656 38.042969 35.007812 37.8125 35.394531 37.484375 C 35.5 37.398438 37.113281 36.921875 38.949219 36.445312 C 40.8125 35.96875 42.570312 35.429688 42.835938 35.265625 C 43.476562 34.832031 43.828125 33.605469 43.664062 32.425781 C 43.417969 30.847656 43.273438 30.785156 39.449219 31.015625 C 37.195312 31.140625 35.933594 31.304688 35.5 31.515625 C 34.78125 31.867188 34.71875 31.71875 35.167969 30.828125 C 35.519531 30.144531 35.667969 30.105469 36.617188 30.433594 C 37.15625 30.644531 37.359375 30.601562 37.960938 30.226562 C 38.582031 29.855469 39.011719 29.792969 40.980469 29.792969 C 42.570312 29.792969 43.355469 29.875 43.476562 30.042969 Z M 25.457031 31.390625 C 26.078125 32.34375 26.160156 33.710938 25.601562 34.207031 C 24.941406 34.808594 22.996094 35.574219 21.820312 35.722656 L 20.644531 35.84375 L 20.558594 37.441406 C 20.496094 38.355469 20.3125 39.308594 20.105469 39.699219 C 19.753906 40.40625 18.742188 40.984375 17.914062 40.984375 C 17.398438 40.984375 17.355469 40.15625 17.8125 38.4375 C 18.183594 37.027344 18.203125 36.632812 17.914062 36.632812 C 17.542969 36.632812 17.109375 37.8125 16.882812 39.539062 C 16.757812 40.507812 16.613281 41.339844 16.574219 41.402344 C 16.449219 41.585938 14.753906 42.398438 14.15625 42.542969 C 13.492188 42.707031 13.515625 42.851562 13.492188 39.953125 C 13.472656 38.355469 13.410156 37.980469 13.160156 37.980469 C 12.914062 37.980469 12.851562 38.394531 12.851562 40.46875 L 12.851562 42.957031 L 12.089844 43.019531 C 10.699219 43.144531 9.089844 41.257812 8.597656 38.933594 C 8.160156 36.902344 9.214844 34.769531 11.175781 33.667969 C 12.730469 32.796875 13.390625 32.652344 16.882812 32.46875 C 20.375 32.28125 21.945312 31.96875 23.910156 31.058594 C 24.425781 30.828125 24.859375 30.625 24.878906 30.625 C 24.902344 30.625 25.167969 30.972656 25.457031 31.390625 Z M 42.695312 31.453125 C 43.519531 31.886719 43.457031 34.332031 42.589844 34.890625 C 42.34375 35.078125 40.523438 35.617188 38.601562 36.117188 C 34.816406 37.070312 34.984375 37.070312 34.363281 35.84375 C 34.179688 35.492188 33.890625 35.183594 33.722656 35.183594 C 33.433594 35.183594 32.792969 34.644531 32.792969 34.375 C 32.792969 34.292969 33.144531 34.125 33.578125 34.019531 C 34.179688 33.878906 34.425781 33.667969 34.734375 33.046875 C 35.359375 31.761719 35.769531 31.617188 39.054688 31.453125 C 40.664062 31.367188 42.070312 31.285156 42.15625 31.285156 C 42.257812 31.261719 42.484375 31.324219 42.695312 31.453125 Z M 32.257812 34.683594 C 32.339844 34.871094 32.359375 35.058594 32.339844 35.078125 C 32.296875 35.097656 31.164062 35.386719 29.796875 35.703125 C 26.363281 36.488281 23.390625 37.238281 23.019531 37.378906 C 22.707031 37.484375 22.089844 36.71875 22.316406 36.507812 C 22.484375 36.34375 24.550781 35.84375 26.179688 35.574219 C 27.03125 35.429688 28.660156 35.121094 29.796875 34.851562 C 30.933594 34.601562 31.925781 34.375 31.988281 34.375 C 32.070312 34.355469 32.195312 34.496094 32.257812 34.683594 Z M 34.054688 36.257812 C 34.46875 37.316406 35.480469 38.292969 36.144531 38.292969 C 36.699219 38.292969 36.722656 38.3125 36.722656 39.472656 L 36.722656 40.65625 L 35.976562 39.929688 C 35.085938 39.082031 33.515625 36.921875 33.230469 36.15625 C 33.039062 35.679688 33.0625 35.597656 33.390625 35.597656 C 33.640625 35.597656 33.890625 35.84375 34.054688 36.257812 Z M 21.632812 37.710938 C 21.632812 37.8125 21.550781 37.875 21.429688 37.875 C 21.324219 37.875 21.21875 37.671875 21.21875 37.398438 C 21.21875 37.027344 21.261719 37.007812 21.429688 37.253906 C 21.53125 37.421875 21.632812 37.628906 21.632812 37.710938 Z M 8.511719 40.65625 L 8.945312 41.546875 L 7.664062 41.796875 C 6.09375 42.085938 5.308594 42.085938 5.308594 41.816406 C 5.308594 41.710938 5.640625 41.234375 6.054688 40.800781 C 6.691406 40.074219 7.105469 39.847656 7.894531 39.785156 C 8.015625 39.761719 8.285156 40.15625 8.511719 40.65625 Z M 8.511719 40.65625 "/>
<path style=" stroke:none;fill-rule:nonzero;fill:rgb(0%,0%,0%);fill-opacity:1;" d="M 36.761719 9.808594 C 36.097656 10.265625 35.519531 11.511719 35.273438 13.0625 C 35.085938 14.308594 35.167969 15.363281 35.605469 16.878906 C 35.707031 17.269531 35.644531 17.355469 35.253906 17.375 L 34.753906 17.394531 L 35.273438 17.5625 C 35.5625 17.648438 36.429688 17.726562 37.195312 17.746094 C 38 17.769531 38.890625 17.914062 39.261719 18.097656 L 39.925781 18.414062 L 39.363281 17.914062 L 38.808594 17.394531 L 39.261719 16.503906 C 39.800781 15.425781 40.003906 12.566406 39.632812 11.34375 C 39.160156 9.726562 37.855469 9.042969 36.761719 9.808594 Z M 38.683594 10.222656 C 39.324219 10.90625 39.695312 12.546875 39.554688 14.058594 C 39.425781 15.53125 38.640625 17.210938 38.0625 17.332031 C 37.691406 17.394531 37.691406 17.355469 38.164062 16.835938 C 38.601562 16.378906 38.683594 16.089844 38.683594 15.03125 C 38.683594 14.039062 38.601562 13.75 38.269531 13.496094 C 37.917969 13.25 37.855469 13.25 37.691406 13.519531 C 37.609375 13.6875 37.257812 13.832031 36.90625 13.832031 C 36.453125 13.832031 36.246094 13.953125 36.097656 14.367188 C 35.769531 15.199219 35.851562 16.007812 36.328125 16.609375 C 36.785156 17.210938 36.722656 17.585938 36.222656 17.167969 C 35.359375 16.441406 35.273438 13.042969 36.121094 11.257812 C 36.863281 9.664062 37.796875 9.269531 38.683594 10.222656 Z M 38.683594 10.222656 "/>
<path style=" stroke:none;fill-rule:nonzero;fill:rgb(0%,0%,0%);fill-opacity:1;" d="M 51.683594 9.976562 C 50.339844 10.578125 49.40625 12.773438 49.574219 15.03125 C 49.636719 15.796875 49.820312 16.714844 50.011719 17.066406 L 50.339844 17.726562 L 49.097656 17.851562 C 48.394531 17.9375 47.878906 18.0625 47.960938 18.121094 C 48.148438 18.328125 53.769531 18.558594 53.953125 18.371094 C 54.078125 18.265625 54.015625 18.144531 53.855469 18.082031 C 53.582031 17.976562 53.644531 17.746094 54.121094 16.773438 C 54.617188 15.796875 54.71875 15.300781 54.742188 14.015625 C 54.761719 11.070312 53.378906 9.25 51.683594 9.976562 Z M 53.089844 10.328125 C 53.8125 10.71875 54.367188 12.296875 54.347656 13.996094 C 54.328125 15.820312 53.480469 17.832031 52.675781 17.9375 L 52.21875 18 L 52.738281 17.230469 C 53.292969 16.421875 53.417969 15.15625 53.046875 14.429688 C 52.757812 13.914062 52.21875 13.933594 52.21875 14.453125 C 52.21875 14.96875 51.761719 15.179688 51.25 14.886719 C 50.9375 14.742188 50.792969 14.785156 50.609375 15.09375 C 50.277344 15.636719 50.296875 16.214844 50.691406 16.960938 C 51.101562 17.769531 50.917969 17.976562 50.441406 17.25 C 50.214844 16.917969 50.050781 16.132812 49.988281 15.199219 C 49.863281 13.144531 50.320312 11.613281 51.289062 10.742188 C 52.074219 10.058594 52.425781 9.976562 53.089844 10.328125 Z M 53.089844 10.328125 "/>
<path style=" stroke:none;fill-rule:nonzero;fill:rgb(0%,0%,0%);fill-opacity:1;" d="M 43.1875 18.703125 C 40.523438 20.027344 41.164062 22.539062 44.160156 22.539062 C 45.773438 22.539062 46.828125 22.1875 47.613281 21.394531 C 48.683594 20.320312 48.480469 19.03125 47.15625 18.476562 C 46.039062 18.019531 44.410156 18.097656 43.1875 18.703125 Z M 47.21875 19.015625 C 48.992188 20.089844 47.074219 22.101562 44.242188 22.125 C 42.03125 22.125 41.183594 20.878906 42.527344 19.613281 C 43.664062 18.558594 45.976562 18.265625 47.21875 19.015625 Z M 47.21875 19.015625 "/>
<path style=" stroke:none;fill-rule:nonzero;fill:rgb(0%,0%,0%);fill-opacity:1;" d="M 51.289062 44.652344 C 48.066406 46.417969 43.8125 46.769531 39.511719 45.648438 C 38.5 45.382812 37.425781 45.09375 37.132812 45.007812 C 36.039062 44.738281 37.980469 45.773438 39.53125 46.292969 C 43.539062 47.640625 47.839844 47.269531 51.121094 45.277344 C 52.527344 44.40625 52.675781 43.910156 51.289062 44.652344 Z M 51.289062 44.652344 "/>
<path style=" stroke:none;fill-rule:nonzero;fill:rgb(0%,0%,0%);fill-opacity:1;" d="M 41.515625 31.84375 C 41.351562 31.929688 41.269531 32.238281 41.308594 32.507812 C 41.351562 32.882812 41.492188 33.007812 41.886719 33.007812 C 42.464844 33.007812 42.695312 32.445312 42.300781 31.96875 C 42.011719 31.617188 41.886719 31.59375 41.515625 31.84375 Z M 42.257812 32.425781 C 42.21875 32.632812 42.050781 32.796875 41.886719 32.796875 C 41.71875 32.796875 41.554688 32.632812 41.515625 32.425781 C 41.472656 32.175781 41.578125 32.074219 41.886719 32.074219 C 42.195312 32.074219 42.300781 32.175781 42.257812 32.425781 Z M 42.257812 32.425781 "/>
<path style=" stroke:none;fill-rule:nonzero;fill:rgb(0%,0%,0%);fill-opacity:1;" d="M 39.40625 32.363281 C 38.851562 33.046875 39.777344 33.855469 40.398438 33.234375 C 40.664062 32.964844 40.6875 32.820312 40.523438 32.527344 C 40.214844 32.054688 39.738281 31.992188 39.40625 32.363281 Z M 40.441406 32.777344 C 40.441406 33.085938 39.945312 33.359375 39.738281 33.171875 C 39.46875 32.882812 39.632812 32.488281 40.027344 32.488281 C 40.253906 32.488281 40.441406 32.609375 40.441406 32.777344 Z M 40.441406 32.777344 "/>
<path style=" stroke:none;fill-rule:nonzero;fill:rgb(0%,0%,0%);fill-opacity:1;" d="M 37.628906 32.589844 C 37.445312 33.070312 37.691406 33.523438 38.125 33.523438 C 38.726562 33.523438 39.117188 32.988281 38.789062 32.589844 C 38.640625 32.425781 38.351562 32.28125 38.125 32.28125 C 37.917969 32.28125 37.691406 32.425781 37.628906 32.589844 Z M 38.582031 32.902344 C 38.582031 33.339844 38.085938 33.484375 37.855469 33.109375 C 37.691406 32.820312 37.917969 32.488281 38.289062 32.488281 C 38.457031 32.488281 38.582031 32.671875 38.582031 32.902344 Z M 38.582031 32.902344 "/>
<path style=" stroke:none;fill-rule:nonzero;fill:rgb(0%,0%,0%);fill-opacity:1;" d="M 35.707031 32.777344 C 35.519531 33.007812 35.5 33.191406 35.6875 33.523438 C 35.957031 34.019531 36.472656 34.003906 36.785156 33.503906 C 37.257812 32.734375 36.265625 32.09375 35.707031 32.777344 Z M 36.617188 33.128906 C 36.617188 33.273438 36.453125 33.441406 36.265625 33.484375 C 35.894531 33.542969 35.75 33.109375 36.039062 32.820312 C 36.246094 32.609375 36.617188 32.796875 36.617188 33.128906 Z M 36.617188 33.128906 "/>
<path style=" stroke:none;fill-rule:nonzero;fill:rgb(0%,0%,0%);fill-opacity:1;" d="M 41.492188 33.792969 C 40.996094 34.394531 41.84375 35.246094 42.445312 34.746094 C 42.859375 34.394531 42.695312 33.648438 42.175781 33.5625 C 41.949219 33.523438 41.640625 33.625 41.492188 33.792969 Z M 42.402344 34.167969 C 42.402344 34.3125 42.238281 34.476562 42.050781 34.519531 C 41.683594 34.582031 41.535156 34.144531 41.824219 33.855469 C 42.03125 33.648438 42.402344 33.835938 42.402344 34.167969 Z M 42.402344 34.167969 "/>
<path style=" stroke:none;fill-rule:nonzero;fill:rgb(0%,0%,0%);fill-opacity:1;" d="M 38 34.125 C 37.585938 34.375 37.773438 35.265625 38.25 35.351562 C 38.808594 35.472656 39.242188 34.832031 38.972656 34.332031 C 38.765625 33.917969 38.4375 33.835938 38 34.125 Z M 38.726562 34.851562 C 38.640625 35.035156 38.5 35.183594 38.375 35.183594 C 38.023438 35.183594 37.878906 34.539062 38.1875 34.332031 C 38.558594 34.105469 38.890625 34.4375 38.726562 34.851562 Z M 38.726562 34.851562 "/>
<path style=" stroke:none;fill-rule:nonzero;fill:rgb(0%,0%,0%);fill-opacity:1;" d="M 39.554688 34.230469 C 39.324219 34.808594 39.632812 35.203125 40.214844 35.140625 C 40.625 35.097656 40.75 34.972656 40.75 34.558594 C 40.75 34.144531 40.625 34.019531 40.214844 33.976562 C 39.863281 33.941406 39.617188 34.042969 39.554688 34.230469 Z M 40.542969 34.558594 C 40.542969 34.726562 40.378906 34.890625 40.191406 34.9375 C 39.925781 34.972656 39.820312 34.871094 39.820312 34.558594 C 39.820312 34.25 39.925781 34.144531 40.191406 34.1875 C 40.378906 34.230469 40.542969 34.394531 40.542969 34.558594 Z M 40.542969 34.558594 "/>
<path style=" stroke:none;fill-rule:nonzero;fill:rgb(0%,0%,0%);fill-opacity:1;" d="M 35.976562 34.4375 C 35.667969 34.683594 35.625 34.808594 35.8125 35.121094 C 36.121094 35.617188 37.011719 35.617188 37.09375 35.121094 C 37.175781 34.746094 36.800781 34.144531 36.535156 34.144531 C 36.453125 34.144531 36.203125 34.269531 35.976562 34.4375 Z M 36.820312 34.972656 C 36.820312 35.429688 36.222656 35.351562 36.144531 34.910156 C 36.082031 34.621094 36.160156 34.539062 36.453125 34.601562 C 36.660156 34.644531 36.820312 34.808594 36.820312 34.972656 Z M 36.820312 34.972656 "/>
<path style=" stroke:none;fill-rule:nonzero;fill:rgb(0%,0%,0%);fill-opacity:1;" d="M 96.070312 8.066406 C 94.316406 8.257812 92.746094 9.023438 91.484375 10.304688 C 90.203125 11.570312 89.5 13.042969 89.191406 15.117188 C 88.570312 19.015625 90.324219 22.664062 93.550781 24.175781 C 94.5625 24.648438 94.933594 24.710938 96.957031 24.691406 C 98.839844 24.691406 99.441406 24.613281 100.476562 24.195312 C 104.152344 22.746094 106.136719 18.265625 105.019531 13.933594 C 103.921875 9.726562 100.617188 7.550781 96.070312 8.066406 Z M 99.109375 11.925781 C 99.398438 12.128906 99.875 12.773438 100.164062 13.335938 C 100.617188 14.203125 100.679688 14.597656 100.679688 16.421875 C 100.679688 18.226562 100.617188 18.640625 100.164062 19.53125 C 99.480469 20.878906 98.574219 21.5 97.230469 21.5 C 95.347656 21.5 94.417969 20.628906 93.839844 18.371094 C 93.199219 15.882812 93.839844 12.960938 95.222656 11.925781 C 96.316406 11.097656 98.015625 11.097656 99.109375 11.925781 Z M 99.109375 11.925781 "/>
<path style=" stroke:none;fill-rule:nonzero;fill:rgb(0%,0%,0%);fill-opacity:1;" d="M 79.765625 8.320312 C 76.421875 9.375 74.804688 12.648438 76.457031 15.09375 C 77.058594 15.988281 79.148438 17.457031 80.425781 17.894531 C 82.78125 18.679688 83.546875 19.46875 83.054688 20.566406 C 82.597656 21.542969 80.324219 21.707031 77.761719 20.960938 C 77.183594 20.796875 76.667969 20.734375 76.582031 20.816406 C 76.441406 20.960938 75.78125 23.261719 75.78125 23.617188 C 75.78125 24.382812 80.117188 25.046875 82.515625 24.628906 C 86.625 23.90625 88.652344 20.816406 87.039062 17.648438 C 86.359375 16.316406 85.699219 15.839844 83.15625 14.722656 C 80.800781 13.707031 80.324219 13.355469 80.324219 12.667969 C 80.324219 11.386719 81.8125 11.070312 85.121094 11.675781 C 85.859375 11.800781 85.925781 11.777344 86.210938 11.070312 C 86.378906 10.683594 86.5625 9.976562 86.648438 9.519531 L 86.773438 8.671875 L 85.675781 8.355469 C 84.355469 7.964844 81.007812 7.941406 79.765625 8.320312 Z M 79.765625 8.320312 "/>
<path style=" stroke:none;fill-rule:nonzero;fill:rgb(0%,0%,0%);fill-opacity:1;" d="M 126.242188 8.234375 C 125.519531 8.320312 124.859375 8.460938 124.734375 8.585938 C 124.609375 8.710938 124.570312 11.820312 124.589844 16.652344 L 124.652344 24.507812 L 126.636719 24.570312 L 128.617188 24.628906 L 128.742188 22.910156 C 128.828125 21.957031 128.890625 20.546875 128.890625 19.757812 L 128.890625 18.328125 L 129.964844 18.433594 C 131.203125 18.558594 131.636719 18.972656 132.007812 20.320312 C 132.136719 20.796875 132.460938 21.957031 132.734375 22.890625 L 133.25 24.613281 L 135.523438 24.613281 C 136.78125 24.613281 137.753906 24.527344 137.691406 24.445312 C 137.648438 24.359375 137.257812 23.117188 136.84375 21.707031 C 136.078125 19.09375 135.664062 18.246094 134.695312 17.394531 C 134.179688 16.917969 134.179688 16.898438 134.550781 16.667969 C 136.390625 15.53125 137.300781 13.914062 137.050781 12.234375 C 136.804688 10.535156 136.164062 9.703125 134.53125 8.875 C 133 8.109375 129.613281 7.839844 126.242188 8.234375 Z M 131.554688 11.363281 C 132.648438 11.757812 133.105469 13.082031 132.503906 14.226562 C 132.109375 14.992188 131.265625 15.320312 129.902344 15.242188 L 128.785156 15.179688 L 128.847656 13.3125 C 128.890625 12.277344 128.972656 11.386719 129.03125 11.28125 C 129.179688 11.054688 130.808594 11.117188 131.554688 11.363281 Z M 131.554688 11.363281 "/>
<path style=" stroke:none;fill-rule:nonzero;fill:rgb(0%,0%,0%);fill-opacity:1;" d="M 150.03125 8.320312 C 146.824219 9.332031 145.257812 12.171875 146.515625 14.660156 C 147.136719 15.925781 148.726562 17.148438 150.816406 17.976562 C 152.757812 18.742188 153.480469 19.28125 153.480469 19.964844 C 153.480469 20.589844 152.609375 21.253906 151.554688 21.394531 C 150.792969 21.519531 149.839844 21.378906 147.136719 20.734375 C 146.742188 20.628906 146.660156 20.777344 146.347656 22.226562 C 145.917969 24.113281 145.875 24.03125 148.066406 24.527344 C 152.222656 25.460938 156.226562 24.214844 157.429688 21.605469 C 158.273438 19.757812 157.613281 17.148438 156.003906 16.050781 C 155.589844 15.734375 154.265625 15.09375 153.085938 14.578125 C 151.886719 14.058594 150.855469 13.519531 150.753906 13.375 C 150.667969 13.230469 150.585938 12.835938 150.585938 12.523438 C 150.585938 11.652344 151.703125 11.238281 153.480469 11.449219 C 156.355469 11.777344 156.207031 11.839844 156.726562 10.304688 C 157.140625 9.105469 157.140625 8.9375 156.847656 8.710938 C 155.980469 8.046875 151.722656 7.800781 150.03125 8.320312 Z M 150.03125 8.320312 "/>
<path style=" stroke:none;fill-rule:nonzero;fill:rgb(0%,0%,0%);fill-opacity:1;" d="M 107.644531 8.480469 C 107.273438 8.855469 107.292969 23.757812 107.664062 24.277344 C 107.871094 24.570312 108.203125 24.613281 109.566406 24.570312 L 111.21875 24.507812 L 111.257812 19.117188 C 111.28125 16.152344 111.300781 13.601562 111.300781 13.457031 C 111.320312 13.3125 112.605469 15.734375 114.175781 18.847656 L 117.027344 24.507812 L 121.554688 24.507812 L 121.617188 16.652344 C 121.636719 11.035156 121.59375 8.710938 121.425781 8.523438 C 121.265625 8.320312 120.683594 8.234375 119.570312 8.234375 C 117.996094 8.234375 117.933594 8.257812 117.8125 8.769531 C 117.730469 9.0625 117.730469 11.425781 117.8125 14.015625 L 117.957031 18.703125 L 115.804688 14.453125 C 112.5625 7.941406 112.832031 8.257812 109.980469 8.234375 C 108.617188 8.234375 107.808594 8.320312 107.644531 8.480469 Z M 107.644531 8.480469 "/>
<path style=" stroke:none;fill-rule:nonzero;fill:rgb(0%,0%,0%);fill-opacity:1;" d="M 139.425781 16.421875 L 139.425781 24.628906 L 141.554688 24.570312 L 143.664062 24.507812 L 143.726562 16.835938 C 143.746094 12.605469 143.726562 8.957031 143.664062 8.691406 C 143.5625 8.257812 143.457031 8.234375 141.492188 8.234375 L 139.425781 8.234375 Z M 139.425781 16.421875 "/>
<path style=" stroke:none;fill-rule:nonzero;fill:rgb(0%,0%,0%);fill-opacity:1;" d="M 163.585938 8.671875 C 163.460938 8.917969 162.902344 10.699219 162.328125 12.648438 C 161.765625 14.617188 160.796875 17.9375 160.175781 20.046875 C 159.554688 22.164062 158.996094 24.050781 158.933594 24.234375 C 158.832031 24.570312 159.019531 24.613281 160.878906 24.613281 C 162.265625 24.613281 163.007812 24.527344 163.152344 24.339844 C 163.277344 24.214844 163.523438 23.429688 163.730469 22.640625 C 163.9375 21.832031 164.183594 21.066406 164.308594 20.917969 C 164.433594 20.734375 165.074219 20.671875 166.582031 20.714844 L 168.667969 20.777344 L 169.1875 22.390625 C 169.476562 23.304688 169.890625 24.15625 170.117188 24.320312 C 170.550781 24.648438 174.042969 24.734375 174.226562 24.425781 C 174.332031 24.277344 170.117188 9.996094 169.601562 8.691406 C 169.414062 8.257812 169.308594 8.234375 166.621094 8.234375 C 164 8.234375 163.8125 8.257812 163.585938 8.671875 Z M 167.535156 15.179688 C 167.84375 16.421875 168.070312 17.523438 168.007812 17.601562 C 167.863281 17.851562 165.09375 17.789062 164.949219 17.542969 C 164.867188 17.4375 165.15625 16.027344 165.589844 14.429688 L 166.355469 11.53125 L 166.644531 12.214844 C 166.8125 12.585938 167.203125 13.914062 167.535156 15.179688 Z M 167.535156 15.179688 "/>
<path style=" stroke:none;fill-rule:nonzero;fill:rgb(0%,0%,0%);fill-opacity:1;" d="M 104.75 27.304688 C 101.878906 27.824219 99.9375 29.773438 99.914062 32.175781 C 99.894531 34.292969 101.152344 35.617188 104.625 37.132812 C 106.964844 38.125 107.625 38.769531 107.230469 39.636719 C 107.085938 39.929688 106.738281 40.261719 106.425781 40.386719 C 105.679688 40.675781 102.808594 40.488281 101.671875 40.09375 C 100.617188 39.699219 100.511719 39.804688 100.101562 41.566406 C 99.726562 43.144531 99.851562 43.332031 101.445312 43.683594 C 107.167969 44.945312 111.734375 42.8125 111.777344 38.871094 C 111.796875 36.425781 110.351562 34.972656 106.425781 33.542969 C 104.398438 32.796875 103.800781 31.949219 104.707031 31.039062 C 105.039062 30.707031 105.390625 30.625 106.632812 30.625 C 107.476562 30.625 108.617188 30.765625 109.152344 30.933594 C 109.710938 31.101562 110.207031 31.203125 110.246094 31.160156 C 110.394531 30.996094 111.097656 28.050781 111.011719 27.90625 C 110.683594 27.390625 106.550781 26.992188 104.75 27.304688 Z M 104.75 27.304688 "/>
<path style=" stroke:none;fill-rule:nonzero;fill:rgb(0%,0%,0%);fill-opacity:1;" d="M 117.253906 27.449219 C 117.027344 27.824219 112.5625 42.933594 112.5625 43.347656 C 112.5625 43.703125 113.449219 43.886719 115.164062 43.886719 C 116.738281 43.886719 116.878906 43.746094 117.421875 41.441406 L 117.769531 39.929688 L 120.0625 39.988281 L 122.339844 40.050781 L 122.894531 41.753906 C 123.183594 42.6875 123.515625 43.535156 123.597656 43.621094 C 123.824219 43.847656 127.484375 43.929688 127.8125 43.722656 C 128.082031 43.535156 127.335938 40.84375 124.421875 31.453125 C 123.90625 29.792969 123.410156 28.21875 123.332031 27.925781 C 123.164062 27.410156 123.164062 27.410156 120.25 27.347656 C 118.660156 27.328125 117.292969 27.367188 117.253906 27.449219 Z M 120.949219 33.753906 C 121.34375 35.289062 121.652344 36.59375 121.652344 36.675781 C 121.652344 36.777344 120.949219 36.839844 120.105469 36.839844 C 118.761719 36.839844 118.554688 36.800781 118.554688 36.46875 C 118.554688 35.660156 119.878906 30.625 120.042969 30.785156 C 120.148438 30.890625 120.5625 32.238281 120.949219 33.753906 Z M 120.949219 33.753906 "/>
<path style=" stroke:none;fill-rule:nonzero;fill:rgb(0%,0%,0%);fill-opacity:1;" d="M 129.652344 27.429688 C 129.402344 27.679688 129.488281 43.039062 129.714844 43.496094 C 129.921875 43.867188 130.210938 43.886719 135.109375 43.886719 L 140.253906 43.886719 L 140.460938 43.347656 C 140.585938 43.058594 140.667969 42.273438 140.667969 41.609375 L 140.667969 40.386719 L 137.421875 40.324219 L 134.15625 40.261719 L 134.054688 33.835938 L 133.949219 27.410156 L 131.863281 27.347656 C 130.726562 27.328125 129.734375 27.347656 129.652344 27.429688 Z M 129.652344 27.429688 "/>
<path style=" stroke:none;fill-rule:nonzero;fill:rgb(0%,0%,0%);fill-opacity:1;" d="M 141.328125 33.253906 C 141.390625 39.183594 141.390625 39.222656 141.925781 40.367188 C 142.902344 42.4375 144.449219 43.535156 146.929688 43.929688 C 149.554688 44.324219 152.34375 43.578125 153.707031 42.085938 C 155.363281 40.304688 155.546875 39.390625 155.546875 32.882812 L 155.546875 27.554688 L 155.089844 27.429688 C 154.824219 27.367188 153.851562 27.304688 152.921875 27.304688 L 151.207031 27.304688 L 151.207031 32.609375 C 151.207031 38.375 151.105469 39.160156 150.175781 40.050781 C 148.976562 41.214844 146.847656 40.863281 146.101562 39.371094 C 145.769531 38.707031 145.707031 37.875 145.628906 33.007812 L 145.523438 27.410156 L 141.265625 27.285156 Z M 141.328125 33.253906 "/>
<path style=" stroke:none;fill-rule:nonzero;fill:rgb(0%,0%,0%);fill-opacity:1;" d="M 158.8125 27.449219 L 158.046875 27.53125 L 157.921875 28.820312 C 157.738281 30.625 157.878906 43.410156 158.089844 43.621094 C 158.191406 43.703125 160.011719 43.785156 162.117188 43.785156 C 165.257812 43.785156 166.207031 43.703125 167.222656 43.390625 C 170.734375 42.335938 172.53125 40.34375 173.136719 36.945312 C 173.960938 32.175781 171.582031 28.589844 166.933594 27.59375 C 165.671875 27.328125 160.816406 27.242188 158.8125 27.449219 Z M 165.589844 30.722656 C 166.746094 31.058594 167.761719 31.992188 168.238281 33.148438 C 168.667969 34.167969 168.648438 36.488281 168.238281 37.734375 C 167.59375 39.617188 165.34375 40.945312 163.152344 40.738281 L 162.46875 40.675781 L 162.40625 35.804688 C 162.386719 33.128906 162.40625 30.828125 162.449219 30.6875 C 162.59375 30.308594 164.308594 30.332031 165.589844 30.722656 Z M 165.589844 30.722656 "/>
<path style=" stroke:none;fill-rule:nonzero;fill:rgb(0%,0%,0%);fill-opacity:1;" d="M 80.636719 28.195312 C 78.773438 29.089844 77.617188 30.933594 77.925781 32.550781 C 78.011719 32.945312 78.296875 33.710938 78.566406 34.269531 C 79.042969 35.203125 79.0625 35.308594 78.734375 35.492188 C 77.863281 36.011719 76.707031 37.238281 76.378906 37.980469 C 75.921875 38.996094 75.859375 40.984375 76.273438 41.796875 C 76.769531 42.75 78.15625 43.847656 79.3125 44.179688 C 81.046875 44.699219 83.609375 44.617188 85.199219 43.972656 L 86.523438 43.453125 L 87.0625 43.867188 C 87.554688 44.265625 87.890625 44.300781 90.078125 44.300781 L 92.558594 44.300781 L 91.089844 42.707031 C 89.707031 41.214844 89.644531 41.089844 89.933594 40.695312 C 91.214844 38.933594 92.144531 37.007812 92.414062 35.535156 L 92.558594 34.746094 L 90.679688 34.808594 L 88.777344 34.871094 L 88.300781 36.28125 C 88.03125 37.070312 87.660156 37.855469 87.476562 38.042969 C 87.125 38.375 87.039062 38.332031 85.964844 37.152344 L 84.847656 35.90625 L 85.324219 35.554688 C 87.660156 33.753906 88.320312 32.695312 88.09375 31.160156 C 87.742188 29.003906 86.210938 27.90625 83.421875 27.78125 C 81.894531 27.699219 81.523438 27.761719 80.636719 28.195312 Z M 84.046875 30.625 C 84.582031 31.160156 84.558594 32.054688 83.984375 32.921875 C 83.34375 33.898438 82.71875 33.941406 82.183594 33.070312 C 81.6875 32.238281 81.648438 31.101562 82.121094 30.582031 C 82.554688 30.082031 83.527344 30.105469 84.046875 30.625 Z M 82.886719 39.121094 C 83.753906 40.035156 84.457031 40.863281 84.457031 40.984375 C 84.457031 41.566406 82.289062 41.816406 81.355469 41.339844 C 80.554688 40.921875 79.851562 39.742188 79.992188 39.039062 C 80.160156 38.25 80.675781 37.460938 81.027344 37.460938 C 81.171875 37.460938 82.015625 38.207031 82.886719 39.121094 Z M 82.886719 39.121094 "/>
</g>
</svg>
